<svg width="8" height="9" viewBox="0 0 8 9" fill="none" xmlns="http://www.w3.org/2000/svg">
<path d="M6.96585 5.60375C6.98684 5.59905 7.00746 5.5947 7.02845 5.59C8.32385 5.30014 8.32385 3.45023 7.02845 3.16036C7.00782 3.15566 6.98684 3.15095 6.96585 3.14661C6.97743 3.12852 6.98901 3.11042 7.00023 3.09269C7.71161 1.9716 6.40355 0.663415 5.28255 1.37486C5.26446 1.38644 5.24637 1.39766 5.22864 1.40924C5.22394 1.38825 5.21959 1.36763 5.21489 1.34664C4.92505 0.0511206 3.07531 0.0511206 2.78547 1.34664C2.78077 1.36726 2.77606 1.38825 2.77172 1.40924C2.75363 1.39766 2.73554 1.38608 2.71781 1.37486C1.59645 0.663415 0.288751 1.97124 0.999774 3.09233C1.01135 3.11042 1.02257 3.12852 1.03415 3.14625C1.01316 3.15095 0.992537 3.1553 0.97155 3.16C-0.32385 3.44986 -0.32385 5.29978 0.97155 5.58964C0.992175 5.59434 1.01316 5.59905 1.03415 5.60339C1.02257 5.62148 1.01099 5.63958 0.999774 5.65731C0.288389 6.7784 1.59645 8.08659 2.71745 7.37514C2.73554 7.36356 2.75363 7.35234 2.77136 7.34076C2.77606 7.36175 2.78041 7.38237 2.78511 7.40336C3.07495 8.69888 4.92469 8.69888 5.21453 7.40336C5.21923 7.38274 5.22394 7.36175 5.22828 7.34076C5.24637 7.35234 5.26446 7.36392 5.28219 7.37514C6.40318 8.08659 7.71125 6.7784 6.99986 5.65731C6.98829 5.63921 6.97707 5.62112 6.96549 5.60339L6.96585 5.60375Z" fill="#A6EAFF"/>
<path d="M4.62626 6.0828C5.2277 6.0828 5.71513 5.46972 5.71513 4.71384C5.71513 3.95795 5.2277 3.34487 4.62626 3.34487C4.02482 3.34487 3.53796 3.95795 3.53796 4.71384C3.53796 5.46972 4.02539 6.0828 4.62626 6.0828Z" fill="white"/>
<path d="M2.23344 5.3953C2.83488 5.3953 3.3223 4.78222 3.3223 4.02634C3.3223 3.27045 2.83488 2.65737 2.23344 2.65737C1.632 2.65737 1.14514 3.27045 1.14514 4.02634C1.14514 4.78222 1.63257 5.3953 2.23344 5.3953Z" fill="white"/>
<path d="M5.16271 4.37504C5.16271 4.00719 5.08062 3.66938 4.94437 3.40445C4.84346 3.36604 4.73686 3.34487 4.62626 3.34487C4.02539 3.34487 3.53796 3.95795 3.53796 4.71384C3.53796 5.22843 3.76372 5.67704 4.09779 5.91045C4.12629 5.91439 4.15537 5.91685 4.18501 5.91685C4.72545 5.91685 5.16328 5.22646 5.16328 4.37455L5.16271 4.37504Z" fill="#231F20"/>
<path d="M2.76989 3.68754C2.76989 3.31969 2.6878 2.98188 2.55155 2.71695C2.45064 2.67854 2.34403 2.65737 2.23344 2.65737C1.63257 2.65737 1.14514 3.27045 1.14514 4.02634C1.14514 4.54093 1.3709 4.98954 1.70497 5.22295C1.73347 5.22689 1.76255 5.22935 1.79219 5.22935C2.33263 5.22935 2.77046 4.53896 2.77046 3.68705L2.76989 3.68754Z" fill="#231F20"/>
</svg>
